<svg xmlns="http://www.w3.org/2000/svg" viewBox="0 0 16 16">
  <defs>
    <style>
      .cls-1 {
        fill: #ff4d4d;
      }
    </style>
  </defs>
  <path id="icon-16X16-总览" fill="#ff4d4d" class="cls-1" d="M206.5,236a7.5,7.5,0,1,0,7.5,7.5A7.5,7.5,0,0,0,206.5,236Zm0.5,1.025A6.5,6.5,0,0,1,212.975,243H207v-5.975Zm-1,0V242.1l-3.222-3.924A6.463,6.463,0,0,1,206,237.025ZM206.5,250a6.492,6.492,0,0,1-4.494-11.185L206.263,244h6.712A6.5,6.5,0,0,1,206.5,250Z" transform="translate(-198.5 -235.5)"/>
</svg>
