<svg id="_24X24-反白-客服" data-name="24X24-反白-客服" xmlns="http://www.w3.org/2000/svg" viewBox="0 0 24 24">
  <defs>
    <style>
      .cls-1 {
        fill: none;
      }

      .cls-2 {
        fill: #fff;
      }
    </style>
  </defs>
  <rect id="矩形_112" data-name="矩形 112" fill="none" class="cls-1" width="24" height="24"/>
  <path id="路径_70" data-name="路径 70" fill="#fff" class="cls-2" d="M15.3,12.9a.349.349,0,0,1-.2.1l-.6.3a6.051,6.051,0,0,1-2.4.4,8.6,8.6,0,0,1-2.4-.4,3.329,3.329,0,0,1-.6-.3.31.31,0,0,0-.2-.1.391.391,0,0,0-.6.4A4,4,0,0,0,12.1,16a3.905,3.905,0,0,0,3.8-2.7C15.9,13,15.6,12.7,15.3,12.9Zm4.1-1.2A7.4,7.4,0,1,0,12,19.1,7.383,7.383,0,0,0,19.4,11.7ZM12,17.6a5.848,5.848,0,0,1-5.9-5.9,5.9,5.9,0,1,1,11.8,0A5.848,5.848,0,0,1,12,17.6Zm9.6-9h-.1a9.818,9.818,0,0,0-9.4-6.8A9.947,9.947,0,0,0,2.7,8.6H2.6A2.482,2.482,0,0,0,0,11a2.4,2.4,0,0,0,2.2,2.4c.1.4.2.9.3,1.3a.446.446,0,0,0,.6.3.446.446,0,0,0,.3-.6A8.423,8.423,0,0,1,3,11.7a8.9,8.9,0,0,1,17.8,0,9,9,0,0,1-5.4,8.2,1.268,1.268,0,0,0-.9-.4,1.3,1.3,0,1,0,1.3,1.3v-.1a9.6,9.6,0,0,0,5.8-7.4A2.288,2.288,0,0,0,24,11,2.433,2.433,0,0,0,21.6,8.6Z"/>
</svg>
