<?xml version="1.0" standalone="no"?><!DOCTYPE svg PUBLIC "-//W3C//DTD SVG 1.1//EN" "http://www.w3.org/Graphics/SVG/1.1/DTD/svg11.dtd"><svg t="1552964065654" class="icon" style="" viewBox="0 0 1024 1024" version="1.1" xmlns="http://www.w3.org/2000/svg" p-id="8140" xmlns:xlink="http://www.w3.org/1999/xlink" width="200" height="200"><defs><style type="text/css"></style></defs><path d="M512 64.565505c-247.111051 0-447.434495 200.325491-447.434495 447.434495 0 247.111051 200.323445 447.434495 447.434495 447.434495s447.434495-200.323445 447.434495-447.434495C959.434495 264.890996 759.111051 64.565505 512 64.565505zM303.036781 722.479759l-16.241916-21.656229c47.571459-32.483832 87.60729-70.542636 120.091122-114.185622l18.702967 16.734126C392.443044 648.983861 351.59266 688.689165 303.036781 722.479759zM530.914792 704.761212c0 27.884071-13.950733 41.834804-41.834804 41.834804l-51.186799 0-5.414313-25.592888c21.656229 1.306762 37.405935 1.968841 47.249117 1.968841 16.734126 0 25.100678-8.205892 25.100678-24.608467L504.82867 541.850865 329.61409 541.850865l-6.398734-22.64065c32.152281-34.452673 61.682851-78.256318 88.591711-131.411959L302.05236 387.798257l0-26.577309L424.604534 361.220948c11.812023-25.915229 21.324678-48.555879 28.54615-67.920926l27.069519 5.906523c-8.205892 21.656229-17.065677 42.327014-26.577309 62.014402L709.083657 361.220948l0 26.577309L440.84645 387.798257c-25.27157 50.202379-52.993958 93.513814-83.178421 129.935328l147.161664 0 0-76.779687 26.085098 0 0 76.779687 158.481478 0 0 24.116257L530.914792 541.849842 530.914792 704.761212zM707.607026 724.94081c-26.90886-37.405935-64.475454-77.764108-112.708991-121.075543l17.718547-17.226337c45.934169 40.358173 83.991949 80.063477 114.185622 119.106702L707.607026 724.94081z" p-id="8141" fill="#ec7413"></path></svg>