<?xml version="1.0" standalone="no"?><!DOCTYPE svg PUBLIC "-//W3C//DTD SVG 1.1//EN" "http://www.w3.org/Graphics/SVG/1.1/DTD/svg11.dtd"><svg t="1552976412833" class="icon" style="" viewBox="0 0 1024 1024" version="1.1" xmlns="http://www.w3.org/2000/svg" p-id="15036" xmlns:xlink="http://www.w3.org/1999/xlink" width="200" height="200"><defs><style type="text/css"></style></defs><path d="M184.32 727.04l107.52-102.4c-15.36-35.84-30.72-71.68-30.72-112.64C266.24 368.64 373.76 256 512 256c46.08 0 92.16 15.36 133.12 40.96l66.56-66.56c-61.44-20.48-128-30.72-199.68-30.72-291.84 0-512 204.8-512 307.2 0 61.44 66.56 148.48 184.32 220.16z m650.24-440.32l-107.52 102.4c20.48 35.84 30.72 76.8 30.72 122.88 0 138.24-112.64 250.88-245.76 250.88-51.2 0-97.28-15.36-138.24-46.08l-71.68 66.56C363.52 803.84 435.2 819.2 512 819.2c302.08 0 512-209.92 512-307.2 0-61.44-71.68-158.72-189.44-225.28z" p-id="15037" fill="#dea364"></path><path d="M916.48 163.84l-40.96-40.96c0-5.12-10.24-5.12-15.36 0L593.92 373.76c-25.6-15.36-51.2-25.6-81.92-25.6-87.04 0-158.72 71.68-158.72 163.84 0 25.6 5.12 46.08 15.36 71.68l-276.48 256c-5.12 0-5.12 10.24 0 15.36L133.12 896c5.12 5.12 10.24 5.12 15.36 0l271.36-250.88c25.6 20.48 56.32 30.72 92.16 30.72 87.04 0 158.72-71.68 158.72-163.84 0-30.72-10.24-56.32-20.48-81.92L916.48 179.2c5.12 0 5.12-10.24 0-15.36z" p-id="15038" fill="#dea364"></path></svg>