<svg xmlns="http://www.w3.org/2000/svg" viewBox="0 0 22 22">
  <defs>
    <style>
      .cls-1 {
        fill: #999;
      }
    </style>
  </defs>
  <path id="table-22X22-常态-彩票" fill="#999" class="cls-1" d="M16,7.6a1.234,1.234,0,0,0-.8-.4,1.412,1.412,0,0,0-.9.1,1.1,1.1,0,0,0,0-.8,3.329,3.329,0,0,0-.3-.6,2.092,2.092,0,0,0-.6-.4c-.2-.1-.5,0-.7,0a1.769,1.769,0,0,0-.8.5,1.612,1.612,0,0,0-.4.7.846.846,0,0,0,0,.7c.1.2.2.5.4.6a.864.864,0,0,0,.6.3h.8a.987.987,0,0,0-.2,1,2.01,2.01,0,0,0,.4.8,1.27,1.27,0,0,0,.7.4,1.1,1.1,0,0,0,.8,0,3.508,3.508,0,0,0,.8-.5,2.177,2.177,0,0,0,.5-.8,1.1,1.1,0,0,0,0-.8C16.2,8.2,16.2,7.8,16,7.6Zm-3.1.3a.713.713,0,0,1-.6-.3A.6.6,0,0,1,12,7a.864.864,0,0,1,.3-.6.864.864,0,0,1,.6-.3.713.713,0,0,1,.6.3.864.864,0,0,1,.3.6.713.713,0,0,1-.3.6A.713.713,0,0,1,12.9,7.9Zm2.6,1.7a1.234,1.234,0,0,1-.8.4,1.33,1.33,0,0,1-.8-.3,1.136,1.136,0,0,1-.3-.8,1.33,1.33,0,0,1,.3-.8,1.136,1.136,0,0,1,.8-.3,1.33,1.33,0,0,1,.8.3,1.136,1.136,0,0,1,.3.8C15.8,9.2,15.7,9.3,15.5,9.6ZM12.9,3.1A5.549,5.549,0,0,0,7.4,8.6a5.5,5.5,0,0,0,11,0A5.549,5.549,0,0,0,12.9,3.1Zm0,10.5a5.015,5.015,0,0,1-5-5,5.081,5.081,0,0,1,5-5,5,5,0,0,1,0,10ZM11,0A11,11,0,1,0,22,11,10.968,10.968,0,0,0,11,0Zm0,20.5A9.56,9.56,0,0,1,1.5,11,9.56,9.56,0,0,1,11,1.5,9.56,9.56,0,0,1,20.5,11,9.56,9.56,0,0,1,11,20.5ZM3.4,11H2.6A8.451,8.451,0,0,0,11,19.4v-.8A7.6,7.6,0,0,1,3.4,11Z"/>
</svg>
