<svg id="icon-24X24-充值记录" xmlns="http://www.w3.org/2000/svg" viewBox="0 0 24 24">
  <defs>
    <style>
      .cls-1 {
        fill: #ff4d4d;
      }
    </style>
  </defs>
  <path id="路径_48" data-name="路径 48" fill="#ff4d4d" class="cls-1" d="M15.1,11.9a.789.789,0,0,0,.8-.8.736.736,0,0,0-.8-.8H13L15.3,8a.778.778,0,0,0-1.1-1.1L12,9.2,9.9,7.1A.778.778,0,0,0,8.8,8.2l2.3,2.3H8.9a.789.789,0,0,0-.8.8.736.736,0,0,0,.8.8h2.3v1.4H8.9a.789.789,0,0,0-.8.8.736.736,0,0,0,.8.8h2.3v1.6a.789.789,0,0,0,.8.8.736.736,0,0,0,.8-.8V15.1h2.3a.789.789,0,0,0,.8-.8.736.736,0,0,0-.8-.8H12.8V12.1h2.3ZM12,21.5A9.56,9.56,0,0,1,2.5,12,9.56,9.56,0,0,1,12,2.5,9.56,9.56,0,0,1,21.5,12a7.457,7.457,0,0,1-.4,2.6,6.136,6.136,0,0,1,2.3,1.1A11.476,11.476,0,0,0,24,12,12,12,0,1,0,12,24a11.476,11.476,0,0,0,3.7-.6,6.136,6.136,0,0,1-1.1-2.3A7.457,7.457,0,0,1,12,21.5ZM20,16a4,4,0,1,0,4,4A4.012,4.012,0,0,0,20,16Zm2.7,4.5H19.1L21,22.4l-.7.7L17.2,20l3.1-3.1.7.7-1.9,1.9h3.6v1Z"/>
</svg>
