<svg xmlns="http://www.w3.org/2000/svg" viewBox="0 0 16 16">
  <defs>
    <style>
      .cls-1 {
        fill: #ff4d4d;
      }
    </style>
  </defs>
  <path id="icon-16X16-日结报表" fill="#ff4d4d" class="cls-1" d="M322,248.277h-1.814v-1.013a0.5,0.5,0,0,0-.99,0v1.013h-6.433v-1.013a0.495,0.495,0,0,0-.989,0v1.013h-1.815a0.981,0.981,0,0,0-.99.972v10.613a0.981,0.981,0,0,0,.99.972H322a0.981,0.981,0,0,0,.99-0.972V249.249A0.981,0.981,0,0,0,322,248.277Zm0,11.585H309.958v-7.656H322v7.656Zm0-8.628H309.958v-1.985h1.815v0.972a0.495,0.495,0,0,0,.989,0v-0.972H319.2v0.972a0.5,0.5,0,0,0,.99,0v-0.972H322v1.985Zm-2.041,2.977H313.8v0.972h6.155v-0.972Zm0,2.734H313.8v0.972h6.155v-0.972Zm-6.835-2.734h-1.185v0.972h1.185v-0.972Zm0,2.734h-1.185v0.972h1.185v-0.972Z" transform="translate(-307.985 -245.813)"/>
</svg>
