<svg xmlns="http://www.w3.org/2000/svg" viewBox="0 0 24 24">
  <defs>
    <style>
      .cls-1 {
        fill: #ff4d4d;
      }
    </style>
  </defs>
  <path id="icon-24X24-公告信息" fill="#ff4d4d" class="cls-1" d="M18.8,12.151H6.1v1.808H18.8ZM6.1,18.577h8.6V16.77H6.1Zm0-9.238H18.7V7.531H6.1ZM20.3,1.908V0H17.8V4.418H20a1.541,1.541,0,0,1,1.5,1.506V19.983A1.541,1.541,0,0,1,20,21.49H4a1.541,1.541,0,0,1-1.5-1.506V5.925A1.476,1.476,0,0,1,4,4.418H6.2V0H3.7V1.908A4.036,4.036,0,0,0,0,5.925V19.983A4.02,4.02,0,0,0,4,24H20a4.02,4.02,0,0,0,4-4.017V5.925A4.036,4.036,0,0,0,20.3,1.908Zm-4,0H7.7v2.51h8.7V1.908Z"/>
</svg>
