<svg id="icon-22X24-投注记录" xmlns="http://www.w3.org/2000/svg" viewBox="0 0 22 24">
  <defs>
    <style>
      .cls-1 {
        fill: #ff4d4d;
      }
    </style>
  </defs>
  <path id="路径_45" data-name="路径 45" fill="#ff4d4d" class="cls-1" d="M14,0H4A4.012,4.012,0,0,0,0,4V20a4.012,4.012,0,0,0,4,4H18a4.012,4.012,0,0,0,4-4V8Zm5.5,20A1.538,1.538,0,0,1,18,21.5H4A1.538,1.538,0,0,1,2.5,20V4A1.538,1.538,0,0,1,4,2.5h9L19.5,9ZM6,8.8H8v-2H6Zm4,8.4h2v-2H10Zm-4,0H8v-2H6ZM6,13H8V11H6Zm4-4.2h2v-2H10Zm6,6.4H14v2h2ZM16,11H14v2h2Zm-6,2h2V11H10ZM17.5,0H15.9L22,6.1V4.5Z"/>
</svg>
