<svg xmlns="http://www.w3.org/2000/svg" viewBox="0 0 22 24">
  <defs>
    <style>
      .cls-1 {
        fill: #ff4d4d;
      }
    </style>
  </defs>
  <path id="icon-24X24-盈亏报表" fill="#ff4d4d" class="cls-1" d="M18,0H4A4.012,4.012,0,0,0,0,4V20a4.012,4.012,0,0,0,4,4H18a4.012,4.012,0,0,0,4-4V4A4.012,4.012,0,0,0,18,0Zm1.5,20A1.538,1.538,0,0,1,18,21.5H4A1.538,1.538,0,0,1,2.5,20V4A1.538,1.538,0,0,1,4,2.5H18A1.538,1.538,0,0,1,19.5,4Zm-14-1.4H7.3V9.8H5.5Zm4.6,0h1.8V5.9H10.1Zm4.6,0h1.8V7.4H14.7Z"/>
</svg>
