<svg xmlns="http://www.w3.org/2000/svg" viewBox="0 0 22 22">
  <defs>
    <style>
      .cls-1 {
        fill: #999;
      }
    </style>
  </defs>
  <path id="table-22X22-常态-我的" fill="#999" class="cls-1" d="M21.6,20.363a7.991,7.991,0,0,0-4.9-5.423L14,13.814l-3,2.558L8,13.814,5.3,14.94A7.991,7.991,0,0,0,.4,20.363L0,22H22Zm-19.6.1a6.524,6.524,0,0,1,3.9-4.093h0l1.8-.819L10,17.5l1,.819,1-.819,2.3-1.944,1.8.819h0A6.531,6.531,0,0,1,20,20.465ZM11,13.3a6.564,6.564,0,0,0,6.5-6.651A6.564,6.564,0,0,0,11,0,6.564,6.564,0,0,0,4.5,6.651,6.564,6.564,0,0,0,11,13.3ZM11,1.535a5.01,5.01,0,0,1,5,5.116,5,5,0,1,1-10,0A5.01,5.01,0,0,1,11,1.535Z"/>
</svg>
