<?xml version="1.0" standalone="no"?><!DOCTYPE svg PUBLIC "-//W3C//DTD SVG 1.1//EN" "http://www.w3.org/Graphics/SVG/1.1/DTD/svg11.dtd"><svg t="1552964106068" class="icon" style="" viewBox="0 0 1024 1024" version="1.1" xmlns="http://www.w3.org/2000/svg" p-id="10998" xmlns:xlink="http://www.w3.org/1999/xlink" width="200" height="200"><defs><style type="text/css"></style></defs><path d="M512 64.565505c-247.111051 0-447.434495 200.325491-447.434495 447.436542 0 247.109004 200.323445 447.432449 447.434495 447.432449s447.434495-200.323445 447.434495-447.432449C959.434495 264.890996 759.111051 64.565505 512 64.565505zM461.518259 744.628198 434.939927 744.628198l0-92.037183c-43.973514 21.656229-91.052762 39.373753-141.255141 53.15564l-6.890944-26.085098c51.839669-12.134365 101.218286-29.852912 148.145062-53.15564L434.938903 465.071178 294.669206 465.071178l0-25.100678L434.939927 439.9705 434.939927 301.667597l26.577309 0L461.517235 744.628198zM710.068078 723.464179c-8.537444 11.149944-23.955598 16.734126-46.264697 16.734126l-78.256318 0c-26.90886 0-40.358173-13.780865-40.358173-41.342594L545.18889 301.667597l26.085098 0L571.273988 472.453309c45.933145-15.418154 91.214445-37.566594 135.840828-66.444295l15.749706 22.148439c-51.848878 31.17707-102.372575 54.470589-151.590534 69.888743l0 196.87081c0 13.450337 6.890944 20.179598 20.671809 20.179598l67.428715 0c14.103206 0 24.27794-3.937682 30.514991-11.812023 6.227842-9.512654 10.335393-38.551014 12.304234-87.11508l25.100678 8.367575C724.341153 678.353772 718.596312 711.320605 710.068078 723.464179z" p-id="10999" fill="#ec7413"></path></svg>