<svg id="_24X24-反白-设置" data-name="24X24-反白-设置" xmlns="http://www.w3.org/2000/svg" viewBox="0 0 24 24">
  <defs>
    <style>
      .cls-1 {
        fill: none;
      }

      .cls-2 {
        fill: #fff;
      }
    </style>
  </defs>
  <rect id="矩形_113" data-name="矩形 113" fill="none" class="cls-1" width="24" height="24"/>
  <path id="路径_71" data-name="路径 71" fill="#fff" class="cls-2" d="M12,7.3a4.8,4.8,0,0,0-4.8,4.8A4.739,4.739,0,0,0,12,16.9a4.739,4.739,0,0,0,4.8-4.8A4.8,4.8,0,0,0,12,7.3Zm0,8A3.3,3.3,0,1,1,15.3,12,3.329,3.329,0,0,1,12,15.3Zm10.4-4.8a1.831,1.831,0,0,0-1.8-1.6A1.965,1.965,0,0,1,18.9,8a2.107,2.107,0,0,1,0-1.9,2,2,0,0,0-.5-2.4,11.041,11.041,0,0,0-2.6-1.5,1.7,1.7,0,0,0-.7-.1,1.8,1.8,0,0,0-1.6.9,1.922,1.922,0,0,1-1.6.9A1.763,1.763,0,0,1,10.4,3a1.922,1.922,0,0,0-1.6-.9,1.7,1.7,0,0,0-.7.1A10.374,10.374,0,0,0,5.6,3.7,1.908,1.908,0,0,0,5,6.1,1.91,1.91,0,0,1,5,7.9a1.659,1.659,0,0,1-1.6.9,1.831,1.831,0,0,0-1.8,1.6A8.6,8.6,0,0,0,1.5,12a7.084,7.084,0,0,0,.1,1.4A1.831,1.831,0,0,0,3.4,15a1.893,1.893,0,0,1,1.6.9,1.865,1.865,0,0,1-.1,1.9,1.876,1.876,0,0,0,.5,2.4,12.75,12.75,0,0,0,2.5,1.5,1.7,1.7,0,0,0,.7.1,1.893,1.893,0,0,0,1.6-.9,2.039,2.039,0,0,1,1.6-1,2.039,2.039,0,0,1,1.6,1,1.8,1.8,0,0,0,1.6.9,1.7,1.7,0,0,0,.7-.1,13.5,13.5,0,0,0,2.6-1.5,2,2,0,0,0,.5-2.4,1.869,1.869,0,0,1-.1-1.9,1.752,1.752,0,0,1,1.7-.9,2.019,2.019,0,0,0,1.9-1.6,7.084,7.084,0,0,0,.1-1.4A3.788,3.788,0,0,0,22.4,10.5Zm-1.5,2.7c0,.2-.2.3-.4.3a3.657,3.657,0,0,0-3,1.6,3.44,3.44,0,0,0,.1,3.4c.1.2.1.4-.1.5a15.916,15.916,0,0,1-2.2,1.3h-.1a.758.758,0,0,1-.4-.2,3.338,3.338,0,0,0-2.9-1.8A3.449,3.449,0,0,0,9,20a.52.52,0,0,1-.4.2H8.5A6.344,6.344,0,0,1,6.4,19c-.2-.1-.2-.3-.1-.5a3.208,3.208,0,0,0,0-3.4,3.356,3.356,0,0,0-2.9-1.6c-.2,0-.4-.1-.4-.3V12a6.6,6.6,0,0,1,.1-1.4c0-.2.2-.3.4-.3A3.356,3.356,0,0,0,6.4,8.7a3.309,3.309,0,0,0,0-3.2c-.1-.3-.1-.5.1-.6A11.609,11.609,0,0,1,8.7,3.6h.1c.1,0,.3.1.3.2a3.314,3.314,0,0,0,2.8,1.6,3.192,3.192,0,0,0,2.8-1.6c.1-.1.2-.2.3-.2h.1a7.1,7.1,0,0,1,2.2,1.3c.2.1.2.3.1.5a3.249,3.249,0,0,0,0,3.3,3.356,3.356,0,0,0,2.9,1.6c.2,0,.4.1.4.3A2.543,2.543,0,0,1,21,12,4.869,4.869,0,0,1,20.9,13.2Z"/>
</svg>
