<?xml version="1.0" standalone="no"?><!DOCTYPE svg PUBLIC "-//W3C//DTD SVG 1.1//EN" "http://www.w3.org/Graphics/SVG/1.1/DTD/svg11.dtd"><svg t="1552976479796" class="icon" style="" viewBox="0 0 1024 1024" version="1.1" xmlns="http://www.w3.org/2000/svg" p-id="15817" xmlns:xlink="http://www.w3.org/1999/xlink" width="200" height="200"><defs><style type="text/css"></style></defs><path d="M512 188.036C266.233 188.036 67 412.319 67 512c0 99.681 199.233 323.964 445 323.964S957 611.681 957 512c0-99.681-199.233-323.964-445-323.964z m0 548.246c-122.883 0-222.5-100.415-222.5-224.282 0-123.868 99.617-224.283 222.5-224.283S734.5 388.132 734.5 512c0 123.868-99.617 224.282-222.5 224.282z" fill="#dea364" p-id="15818"></path><path d="M388.389 512a123.611 124.601 0 1 0 247.222 0 123.611 124.601 0 1 0-247.222 0Z" fill="#dea364" p-id="15819"></path></svg>