<?xml version="1.0" standalone="no"?><!DOCTYPE svg PUBLIC "-//W3C//DTD SVG 1.1//EN" "http://www.w3.org/Graphics/SVG/1.1/DTD/svg11.dtd"><svg t="1552704839784" class="icon" style="" viewBox="0 0 1024 1024" version="1.1" xmlns="http://www.w3.org/2000/svg" p-id="10826" xmlns:xlink="http://www.w3.org/1999/xlink" width="200" height="200"><defs><style type="text/css"></style></defs><path d="M760.5 125.9h-53.3c-14.1 0-27.7 6.1-36.8 17-27.3 32.6-105.4 53.7-154.6 53.7-49.2 0-127.3-21.1-154.6-53.7-9.2-10.9-22.7-17-36.8-17H271c-13 0-25.4 5.2-34.6 14.6L59.3 320.6c-11.4 11.6-11.4 30.3 0 41.9l108 109.9c11.4 11.6 29.8 11.6 41.2 0l3.6-3.6c3.9-3.9 10.5-1.2 10.5 4.4v383.1c0 24.9 19.8 45.1 44.3 45.1h497.7c24.5 0 44.3-20.2 44.3-45.1V473.1c0-5.6 6.6-8.4 10.5-4.4l3.6 3.6c11.4 11.6 29.8 11.6 41.2 0l108-109.9c11.4-11.6 11.4-30.3 0-41.9L795.1 140.4c-9.2-9.3-21.7-14.5-34.6-14.5z" fill="#dbdbdb" p-id="10827"></path><path d="M934.7 400.5l37.5-38.1c11.4-11.6 11.4-30.3 0-41.9L795.1 140.4c-7-7.1-15.8-11.8-25.4-13.7 85.3 66.2 145.8 163 165 273.8zM59.3 320.6c-11.4 11.6-11.4 30.3 0 41.9l9.6 9.8c8.4-34.9 21-68.1 37.1-99.2l-46.7 47.5zM222.6 856.2c0 24.9 19.8 45.1 44.3 45.1h107.7c-56.1-16.4-107.5-43.6-152-79.2v34.1zM808.9 856.2v-64c-51.3 50.4-114.8 88.4-185.7 109.1h141.4c24.5 0 44.3-20.2 44.3-45.1z" fill="#dbdbdb" p-id="10828"></path><path d="M287.9 125.9H271c-13 0-25.4 5.2-34.6 14.6L106 273c-16.1 31.1-28.7 64.3-37.1 99.2l32.7 33.2C117.3 286 188.2 184 287.9 125.9zM861.8 455.8c0 6.4-0.2 12.7-0.5 19 1-0.8 1.9-1.6 2.8-2.5l70.6-71.8c-19.2-110.8-79.7-207.6-165-273.7-3-0.6-6.1-0.9-9.2-0.9h-53.3c-8.6 0-17 2.3-24.3 6.5 107.5 67.5 178.9 187.1 178.9 323.4zM808.9 649.8C742.5 762.2 620 837.6 480 837.6c-99.2 0-189.6-37.9-257.5-99.9v84.4c44.4 35.6 95.9 62.8 152 79.2h248.7c70.9-20.7 134.4-58.7 185.7-109.1V649.8z" fill="#dbdbdb" p-id="10829"></path><path d="M808.9 649.8V473.1c0-5.6 6.6-8.4 10.5-4.4l3.6 3.6c10.5 10.7 26.9 11.5 38.4 2.5 0.3-6.3 0.5-12.6 0.5-19 0-136.3-71.4-255.9-178.9-323.5-4.7 2.7-9 6.2-12.5 10.5-7.5 8.9-18.8 17-32.3 24C725 224.4 782.4 323 782.4 435c0 177.4-143.8 321.2-321.2 321.2-94.7 0-179.9-41-238.6-106.3v87.8c67.9 62 158.3 99.9 257.5 99.9 139.9 0 262.4-75.4 328.8-187.8zM350.4 133.5c-7.7-5-16.8-7.6-26.1-7.6h-36.4C188.2 184 117.3 286 101.6 405.5l38.6 39.3c-0.1-3.2-0.2-6.5-0.2-9.7 0-138.5 87.6-256.5 210.4-301.6z" fill="#dbdbdb" p-id="10830"></path><path d="M382.4 160.6c-8.6-5.4-16-11.4-21.3-17.8-3.1-3.7-6.7-6.8-10.7-9.4C227.6 178.6 140 296.6 140 435c0 3.3 0.1 6.5 0.2 9.7l27.1 27.6c6.3 6.4 14.9 9.3 23.1 8.6-5.6-21.3-8.6-43.6-8.6-66.7 0-123.2 85.6-226.5 200.6-253.6zM461.2 756.2c177.4 0 321.2-143.8 321.2-321.2 0-112-57.4-210.6-144.3-268.1-18.6 9.7-41.4 17.4-64 22.5 77.1 45.2 128.9 129 128.9 224.8 0 143.9-116.6 260.5-260.5 260.5-92.4 0-173.6-48.1-219.8-120.6v95.8c58.6 65.3 143.8 106.3 238.5 106.3z" fill="#dbdbdb" p-id="10831"></path><path d="M442.4 674.8c143.9 0 260.5-116.6 260.5-260.5 0-95.8-51.8-179.6-128.9-224.8-20.7 4.7-41.2 7.2-58.3 7.2-39.6 0-97.8-13.7-133.3-36-115 27.1-200.6 130.3-200.6 253.6 0 23 3 45.4 8.6 66.7 6.6-0.6 13-3.4 18-8.6l3.6-3.6c3.9-3.9 10.5-1.2 10.5 4.4v81c46.3 72.5 127.5 120.6 219.9 120.6z m-18.9-481.3c110.4 0 199.9 89.5 199.9 199.9s-89.5 199.9-199.9 199.9-199.9-89.5-199.9-199.9 89.5-199.9 199.9-199.9z" fill="#dbdbdb" p-id="10832"></path><path d="M423.5 593.3c110.4 0 199.9-89.5 199.9-199.9s-89.5-199.9-199.9-199.9S223.6 283 223.6 393.4s89.5 199.9 199.9 199.9z m-18.8-360c76.9 0 139.3 62.4 139.3 139.3s-62.4 139.3-139.3 139.3-139.3-62.4-139.3-139.3 62.4-139.3 139.3-139.3z" fill="#dbdbdb" p-id="10833"></path><path d="M404.7 372.6m-139.3 0a139.3 139.3 0 1 0 278.6 0 139.3 139.3 0 1 0-278.6 0Z" fill="#dbdbdb" p-id="10834"></path><path d="M760.5 143.9c8.2 0 15.9 3.3 21.8 9.2l177.1 180.1c4.5 4.6 4.5 12.1 0 16.6l-108 109.9c-2.1 2.1-4.8 3.3-7.8 3.3-2.9 0-5.7-1.2-7.8-3.3l-3.6-3.6c-4.6-4.7-10.7-7.2-17.1-7.2-13.3 0-24.2 10.9-24.2 24.3v383.1c0 14.9-11.8 27.1-26.3 27.1H266.9c-14.5 0-26.3-12.1-26.3-27.1V473.1c0-13.4-10.9-24.3-24.2-24.3-6.5 0-12.6 2.6-17.1 7.2l-3.5 3.6c-2.1 2.1-4.8 3.3-7.8 3.3-2.9 0-5.7-1.2-7.8-3.3l-108-109.9c-4.5-4.6-4.5-12.1 0-16.6l177-180.1c5.8-5.9 13.6-9.2 21.8-9.2h53.3c9 0 17.4 3.9 23 10.6 18.8 22.4 52.4 36.6 77.4 44.7 30.2 9.7 64.2 15.5 91 15.5s60.8-5.8 91-15.5c25-8 58.7-22.3 77.4-44.7 5.6-6.7 14-10.6 23-10.6l53.4 0.1m0-18h-53.3c-14.1 0-27.7 6.1-36.8 17-27.3 32.6-105.4 53.7-154.6 53.7-49.2 0-127.3-21.1-154.6-53.7-9.2-10.9-22.7-17-36.8-17H271c-13 0-25.4 5.2-34.6 14.6L59.3 320.6c-11.4 11.6-11.4 30.3 0 41.9l108 109.9c5.7 5.8 13.1 8.7 20.6 8.7s14.9-2.9 20.6-8.7l3.6-3.6c1.3-1.3 2.8-1.8 4.3-1.8 3.2 0 6.2 2.5 6.2 6.3v383.1c0 24.9 19.8 45.1 44.3 45.1h497.7c24.5 0 44.3-20.2 44.3-45.1V473.1c0-3.8 3-6.3 6.2-6.3 1.5 0 3.1 0.6 4.3 1.8l3.6 3.6c5.7 5.8 13.1 8.7 20.6 8.7s14.9-2.9 20.6-8.7l108-109.9c11.4-11.6 11.4-30.3 0-41.9l-177.1-180c-9.2-9.3-21.7-14.5-34.6-14.5z" fill="#dbdbdb" p-id="10835"></path><path d="M309.3 384h206.8c19 0 34.5 15.4 34.5 34.5v275.7c0 19-15.4 34.5-34.5 34.5H309.3c-19 0-34.5-15.4-34.5-34.5V418.5c0.1-19 15.5-34.5 34.5-34.5z" fill="#dbdbdb" p-id="10836"></path><path d="M167.7 303c-7-7-7-18.4 0-25.5l87.8-87.8c7-7 18.4-7 25.5 0s7 18.4 0 25.5L193.2 303c-7.1 7.1-18.5 7.1-25.5 0zM118.5 352.3c-7-7-7-18.4 0-25.5l7.5-7.5c7-7 18.4-7 25.5 0 7 7 7 18.4 0 25.5l-7.5 7.5c-7.1 7-18.5 7-25.5 0z" fill="#dbdbdb" p-id="10837"></path></svg>