<?xml version="1.0" standalone="no"?><!DOCTYPE svg PUBLIC "-//W3C//DTD SVG 1.1//EN" "http://www.w3.org/Graphics/SVG/1.1/DTD/svg11.dtd"><svg t="1552964094163" class="icon" style="" viewBox="0 0 1024 1024" version="1.1" xmlns="http://www.w3.org/2000/svg" p-id="10185" xmlns:xlink="http://www.w3.org/1999/xlink" width="200" height="200"><defs><style type="text/css"></style></defs><path d="M512 64.564481c-247.111051 0-447.434495 200.321398-447.434495 447.432449S264.887926 959.434495 512 959.434495s447.434495-200.325491 447.434495-447.436542S759.111051 64.564481 512 64.564481zM521.071609 740.196259l-26.577309 0 0-92.037183L377.355417 648.159076l0-23.624047 117.138884 0 0-59.061141-100.896968 0 0-24.116257 59.061141 0c-7.874341-20.671809-17.396205-39.203884-28.54615-55.615669l24.11728-8.858762c11.149944 18.049075 21.324678 39.544645 30.514991 64.475454l56.107879 0c12.134365-20.009729 23.131837-42.488697 32.976042-67.428715l24.116257 8.858762c-9.843182 22.64065-20.349467 42.166355-31.499411 58.56893l62.998823 0 0 24.116257L521.071609 565.473889l0 59.061141 117.630071 0 0 23.624047L521.071609 648.159076 521.071609 740.196259zM725.325573 374.999766 519.594979 374.999766c-3.615341 21.002336-7.060813 39.544645-10.335393 55.615669l188.504258 0 0 272.6671c0 27.231201-13.288654 40.850383-39.865963 40.850383l-49.217958 0-7.383154-26.085098 47.741327 0.984421c14.765285 0 22.148439-7.221472 22.148439-21.656229L671.186536 456.209346 344.871585 456.209346l0 291.369044-26.085098 0L318.786487 430.616458l163.40358 0c4.260024-19.687388 7.704472-38.219463 10.335393-55.615669L290.240337 375.000789l0-25.592888 205.730595 0 5.906523-52.66343 27.069519 3.937682-5.414313 48.725748 201.792912 0L725.325573 374.999766z" p-id="10186" fill="#ec7413"></path></svg>