<svg xmlns="http://www.w3.org/2000/svg" viewBox="0 0 22 20">
  <defs>
    <style>
      .cls-1 {
        fill: #ff4d4d;
      }
    </style>
  </defs>
  <path id="table-22X20-高亮-报表" fill="#ff4d4d" class="cls-1" d="M7.367,5.1l.1.1,5.45,5.4,8.174-5.8V2.3A2.273,2.273,0,0,0,18.771,0H3.229A2.273,2.273,0,0,0,.908,2.3V9.4h0v.2Zm-.2,6L.908,15.6v2.1A2.273,2.273,0,0,0,3.229,20H18.771a2.273,2.273,0,0,0,2.321-2.3V10.3l-8.376,6.3Zm5.651,3.1L22,7.4l-.606-.8-8.477,6.2L7.367,7.3,0,12.6l.606.8L7.367,8.6Z"/>
</svg>
