<?xml version="1.0" standalone="no"?><!DOCTYPE svg PUBLIC "-//W3C//DTD SVG 1.1//EN" "http://www.w3.org/Graphics/SVG/1.1/DTD/svg11.dtd"><svg t="1552964079859" class="icon" style="" viewBox="0 0 1024 1024" version="1.1" xmlns="http://www.w3.org/2000/svg" p-id="9116" xmlns:xlink="http://www.w3.org/1999/xlink" width="200" height="200"><defs><style type="text/css"></style></defs><path d="M599.327928 586.146721l70.381977 0L669.709905 458.672444l-94.498234 0 0 103.356996C575.210647 578.110697 583.246671 586.146721 599.327928 586.146721zM549.125549 348.916714 465.454918 348.916714l0 84.162842 83.670631 0L549.125549 348.916714zM512 64.565505c-247.111051 0-447.434495 200.325491-447.434495 447.436542S264.887926 959.434495 512 959.434495s447.434495-200.321398 447.434495-447.432449S759.111051 64.565505 512 64.565505zM726.309994 348.916714 575.210647 348.916714l0 84.162842 121.075543 0 0 312.040852-26.577309 0 0-24.11728L346.840426 721.003128l0 24.11728-26.577309 0L320.263118 433.079556l118.614491 0 0-84.162842L289.255916 348.916714l0-26.577309 437.054077 0L726.309994 348.916714zM383.26194 640.285758l-20.671809-17.718547c49.870828-31.16786 75.303057-81.370239 76.287477-150.606113l0-13.288654-92.037183 0 0 236.737796 322.868455 0 0-84.655052-76.779687 0c-29.208229 0-43.803645-14.433734-43.803645-43.311435L549.125549 458.672444 465.454918 458.672444l0 13.288654C464.47152 548.740786 437.07045 604.849688 383.26194 640.285758z" p-id="9117" fill="#ec7413"></path></svg>