<svg id="组_101" data-name="组 101" xmlns="http://www.w3.org/2000/svg" viewBox="0 0 16 16">
  <defs>
    <style>
      .cls-1 {
        fill: none;
      }

      .cls-2 {
        fill: #fff;
      }

      .cls-3 {
        fill: #ff4d4d;
      }
    </style>
  </defs>
  <g id="组_99" data-name="组 99">
    <rect id="矩形_168" data-name="矩形 168" class="cls-1" width="16" height="16"/>
  </g>
  <rect id="矩形_169" data-name="矩形 169" class="cls-2" width="8" height="3" transform="translate(4)"/>
  <g id="组_100" data-name="组 100">
    <path id="路径_89" data-name="路径 89" class="cls-3" d="M12,0H4V3h8ZM11,2H5V1h6Zm2.8-1H12.5V2h1.3a.349.349,0,0,1,.2.1V15a.349.349,0,0,1-.2.1H2.2L2,14.9V2.1A.349.349,0,0,1,2.2,2H3.5V1H2.2A1.135,1.135,0,0,0,1,2.1V15a1.126,1.126,0,0,0,1.2,1H13.9a1.2,1.2,0,0,0,1.2-1.1V2.1A1.3,1.3,0,0,0,13.8,1ZM9.7,4.8,8.6,6.9c-.3.5-.5.9-.6,1.1H8c-.2-.5-.7-1.5-1.6-3.2h-1L7.3,8.1H5.7v.7H7.6v1H5.7v.7H7.6V12h.9V10.5h1.8V9.9H8.5v-1h1.8V8.2H8.7l2-3.3h-1Z"/>
  </g>
</svg>
