<svg xmlns="http://www.w3.org/2000/svg" width="16" height="16" viewBox="0 0 16 16">
  <metadata><?xpacket begin="﻿" id="W5M0MpCehiHzreSzNTczkc9d"?>
<x:xmpmeta xmlns:x="adobe:ns:meta/" x:xmptk="Adobe XMP Core 5.6-c142 79.160924, 2017/07/13-01:06:39        ">
   <rdf:RDF xmlns:rdf="http://www.w3.org/1999/02/22-rdf-syntax-ns#">
      <rdf:Description rdf:about=""/>
   </rdf:RDF>
</x:xmpmeta>
                                                                                                    
                                                                                                    
                                                                                                    
                                                                                                    
                                                                                                    
                                                                                                    
                                                                                                    
                                                                                                    
                                                                                                    
                                                                                                    
                                                                                                    
                                                                                                    
                                                                                                    
                                                                                                    
                                                                                                    
                                                                                                    
                                                                                                    
                                                                                                    
                                                                                                    
                                                                                                    
                           
<?xpacket end="w"?></metadata>
<defs>
    <style>
      .cls-1 {
        fill: #ff4d4d;
        fill-rule: evenodd;
      }
    </style>
  </defs>
  <path id="icon-16X16-第三方账变" class="cls-1" d="M288.542,242.792v-0.018a1.67,1.67,0,0,0,1.374-1.733,1.5,1.5,0,0,0-.532-1.191,2.084,2.084,0,0,0-1.41-.458,3.089,3.089,0,0,0-1.574.39v0.82a2.206,2.206,0,0,1,1.361-.488,1.062,1.062,0,0,1,1.264,1.131q0,1.222-1.654,1.223h-0.545v0.718H287.4q1.866,0,1.866,1.3a1.157,1.157,0,0,1-.414.933,1.694,1.694,0,0,1-1.124.348,2.538,2.538,0,0,1-1.592-.545v0.9a3,3,0,0,0,1.574.364,2.651,2.651,0,0,0,1.776-.567,1.87,1.87,0,0,0,.667-1.494,1.532,1.532,0,0,0-.432-1.111A1.855,1.855,0,0,0,288.542,242.792ZM294,249V237a1,1,0,0,0-1-1H283a1,1,0,0,0-1,1v12a1,1,0,0,0,1,1h10A1,1,0,0,0,294,249Zm-11-12h10v12H283V237Zm12,1h-0.458v1H295v12H285v-0.417h-1V251a1,1,0,0,0,1,1h10a1,1,0,0,0,1-1V239A1,1,0,0,0,295,238Z" transform="translate(-281 -236)"/>
</svg>
