<svg id="icon-24X24-追号记录" xmlns="http://www.w3.org/2000/svg" viewBox="0 0 24 24">
  <defs>
    <style>
      .cls-1 {
        fill: #ff4d4d;
      }
    </style>
  </defs>
  <path id="路径_46" data-name="路径 46" class="cls-1" d="M12,21.5A9.56,9.56,0,0,1,2.5,12,9.56,9.56,0,0,1,12,2.5,9.56,9.56,0,0,1,21.5,12a7.457,7.457,0,0,1-.4,2.6,6.136,6.136,0,0,1,2.3,1.1A11.476,11.476,0,0,0,24,12,12,12,0,1,0,12,24a11.476,11.476,0,0,0,3.7-.6,6.136,6.136,0,0,1-1.1-2.3A7.457,7.457,0,0,1,12,21.5ZM16.9,6.6,12,12,7.6,9.2a1.091,1.091,0,0,0-1.3.3.837.837,0,0,0,.3,1.2l5.7,3.5,5.9-6.4a.942.942,0,0,0-.1-1.3A.92.92,0,0,0,16.9,6.6ZM20,16a4,4,0,1,0,4,4A4.012,4.012,0,0,0,20,16Zm2.7,4.5H20.5v2.2h-1V20.5H17.3v-1h2.2V17.3h1v2.2h2.2Z"/>
</svg>
