<svg xmlns="http://www.w3.org/2000/svg" viewBox="0 0 24 24">
  <defs>
    <style>
      .cls-1 {
        fill: #ff4d4d;
      }
    </style>
  </defs>
  <path id="icon-24X24-返点总额" class="cls-1" d="M17.9,4.9l.8-1.6A1.94,1.94,0,0,0,17.5.5,22.827,22.827,0,0,0,12,0,22.827,22.827,0,0,0,6.5.5,1.94,1.94,0,0,0,5.3,3.3l.8,1.6A13.144,13.144,0,0,0,0,15.7C0,22.6,5.4,24,12,24s12-1.4,12-8.3A13.3,13.3,0,0,0,17.9,4.9ZM12,21.5c-7.9,0-9.5-2.2-9.5-5.8A10.547,10.547,0,0,1,7.4,7L9.3,5.8l-1-2-.5-1A24.18,24.18,0,0,1,12,2.5a24.18,24.18,0,0,1,4.2.3l-.5,1-1,1.9L16.5,7a10.7,10.7,0,0,1,5,8.7C21.5,19.3,19.9,21.5,12,21.5Zm2.8-7.6a.789.789,0,0,0,.8-.8.736.736,0,0,0-.8-.8H13l1.9-1.9a.778.778,0,0,0-1.1-1.1l-1.8,2L10.1,9.4A.778.778,0,1,0,9,10.5l1.9,1.9H9.2a.789.789,0,0,0-.8.8.736.736,0,0,0,.8.8h2.1v1H9.2a.789.789,0,0,0-.8.8.736.736,0,0,0,.8.8h2.1V18a.789.789,0,0,0,.8.8.736.736,0,0,0,.8-.8V16.6H15a.789.789,0,0,0,.8-.8c0-.5-.6-.8-1-.8H12.7V13.9Z"/>
</svg>
