<svg xmlns="http://www.w3.org/2000/svg" viewBox="0 0 22 24">
  <defs>
    <style>
      .cls-1 {
        fill: #ff4d4d;
      }
    </style>
  </defs>
  <path id="icon-22X24-彩种信息" class="cls-1" d="M4,21.5A1.538,1.538,0,0,1,2.5,20V4A1.538,1.538,0,0,1,4,2.5H18A1.538,1.538,0,0,1,19.5,4V14.7A5.789,5.789,0,0,1,22,16.2V4a4.012,4.012,0,0,0-4-4H4A4.012,4.012,0,0,0,0,4V20a4.012,4.012,0,0,0,4,4H14.2a5.789,5.789,0,0,1-1.5-2.5ZM18,16a4,4,0,1,0,4,4A4.012,4.012,0,0,0,18,16Zm1.8,6.7L18,21.8l-1.8.9.3-2L15,19.3l2-.3.9-1.8.9,1.8,2,.3-1.5,1.4ZM6.9,5.3h-2v2h2Zm5.1,0H10v2h2ZM6.9,9.2h-2v2h2Zm5.1,0H10v2h2Zm5.1,2v-2h-2v2ZM6.9,13h-2v2h2ZM10,15h2V13H10ZM4.9,18.9h2v-2h-2Z"/>
</svg>
