<svg id="_24X24-反白-消息" data-name="24X24-反白-消息" xmlns="http://www.w3.org/2000/svg" viewBox="0 0 24 24">
  <defs>
    <style>
      .cls-1 {
        fill: none;
      }

      .cls-2 {
        fill: #fff;
      }
    </style>
  </defs>
  <rect id="矩形_114" data-name="矩形 114" class="cls-1" width="24" height="24"/>
  <path id="路径_72" data-name="路径 72" class="cls-2" d="M7.3,10.5a1,1,0,0,0,0,2,1,1,0,0,0,0-2Zm4.7,0a1,1,0,1,0,1,1A.945.945,0,0,0,12,10.5Zm4.7,0a1,1,0,1,0,1,1A1,1,0,0,0,16.7,10.5Zm1.9-6.9H5.4A3.329,3.329,0,0,0,2.1,6.9v8.8A3.329,3.329,0,0,0,5.4,19h4L12,22.7,14.6,19h4a3.329,3.329,0,0,0,3.3-3.3V6.9A3.329,3.329,0,0,0,18.6,3.6Zm1.8,12.1a1.793,1.793,0,0,1-1.8,1.8H13.8l-.4.6-1.4,2-1.3-1.9-.4-.6H5.4a1.793,1.793,0,0,1-1.8-1.8V6.9A1.793,1.793,0,0,1,5.4,5.1H18.6a1.793,1.793,0,0,1,1.8,1.8v8.8Z"/>
</svg>
