<svg xmlns="http://www.w3.org/2000/svg" viewBox="0 0 22 20">
  <defs>
    <style>
      .cls-1 {
        fill: #ff4d4d;
      }
    </style>
  </defs>
  <path id="table-22X20-高亮-开奖" class="cls-1" d="M22,2.985V0H3.9A4.577,4.577,0,0,1,0,3.483V16.517A4.455,4.455,0,0,1,3.9,20H22V17.015a1.534,1.534,0,0,1-1.5-1.493A1.625,1.625,0,0,1,22,13.93V11.443a1.493,1.493,0,1,1,0-2.985V5.97a1.534,1.534,0,0,1-1.5-1.493A1.534,1.534,0,0,1,22,2.985Zm-9.4.9.9.2A5.32,5.32,0,0,1,13,5.174h4.1v.7q-1.5,3.582-6,4.478a4.027,4.027,0,0,0-.5-.9,8.306,8.306,0,0,0,2.9-1A17.358,17.358,0,0,0,12,7.164l.6-.6A11.5,11.5,0,0,1,14.3,7.96a5.463,5.463,0,0,0,1.8-2.189H12.6a7.386,7.386,0,0,1-1.5,1.891c-.2-.2-.5-.4-.7-.6A6.993,6.993,0,0,0,12.6,3.881Zm-5.7.8c.6.5,1.2,1,1.7,1.493l-.6.7c-.6-.6-1.1-1.194-1.6-1.592ZM9.1,7.463V3.98H10v6.667H9.1V8.358c-.6.3-1.6.7-2.8,1.294l-.3-.9C7.1,8.259,8.2,7.861,9.1,7.463ZM17,15.323a7.175,7.175,0,0,1-5.2-3.085c-.8,1.692-2.5,2.786-5.2,3.284l-.6-.9c2.6-.4,4.2-1.294,4.9-2.587H6.3v-.8h5a1.867,1.867,0,0,0,.2-.8h1c-.1.3-.1.5-.2.8h5.2v.8H12.7a6.511,6.511,0,0,0,5,2.388A5.472,5.472,0,0,0,17,15.323Z"/>
</svg>
