<svg xmlns="http://www.w3.org/2000/svg" viewBox="0 0 22 20">
  <defs>
    <style>
      .cls-1 {
        fill: #999;
      }
    </style>
  </defs>
  <path id="table-22X20-常态-报表" class="cls-1" d="M2.422,2.289a.862.862,0,0,1,.807-.8H18.771a.862.862,0,0,1,.807.8V4.776l1.514-1.095V2.289A2.268,2.268,0,0,0,18.771,0H3.229A2.268,2.268,0,0,0,.908,2.289V8.856L2.422,7.761ZM12.817,14.129,22,7.363l-.606-.8-8.477,6.169L7.367,7.264,0,12.537l.606.8L7.367,8.557Zm6.761,3.483a.862.862,0,0,1-.807.8H3.229a.862.862,0,0,1-.807-.8V15.124L.908,16.219v1.493A2.268,2.268,0,0,0,3.229,20H18.771a2.268,2.268,0,0,0,2.321-2.289V11.244l-1.514,1.095Z"/>
</svg>
