<svg xmlns="http://www.w3.org/2000/svg" viewBox="0 0 24 24">
  <defs>
    <style>
      .cls-1 {
        fill: #ff4d4d;
      }
    </style>
  </defs>
  <path id="icon-24X24-注册管理" fill="#ff4d4d" class="cls-1" d="M2.7,21.411a8.49,8.49,0,0,1,8.4-6.772,9.134,9.134,0,0,1,4,1,5.962,5.962,0,0,1,2.2-1.593,11.277,11.277,0,0,0-2.7-1.295A6.9,6.9,0,0,0,18,6.871,7.052,7.052,0,0,0,11,0,6.858,6.858,0,0,0,4.2,6.772a6.9,6.9,0,0,0,3.4,5.876A11.076,11.076,0,0,0,0,23.1v.8H15.6a6.167,6.167,0,0,1-1.7-2.49Zm4-14.639A4.3,4.3,0,1,1,11,11.054,4.259,4.259,0,0,1,6.7,6.772ZM22.9,19.419v-.5l1.1-.8-.5-.9-.5-.9-1.3.6-.9-.6-.2-1.394h-2l-.2,1.394a4.058,4.058,0,0,0-.9.5l-1.3-.6-.5.9-.5.9,1.2.9c0,.2-.1.3-.1.5v.5l-1.2.9.5.9.5.9,1.3-.6a2.179,2.179,0,0,0,.8.5L18.4,24h2l.2-1.394a4.058,4.058,0,0,0,.9-.5l1.3.6.5-.9.5-.9-1.1-.8A1.07,1.07,0,0,0,22.9,19.419Zm-3.3,1.892a1.892,1.892,0,1,1,1.9-1.892A1.895,1.895,0,0,1,19.6,21.311Z"/>
</svg>
