<svg xmlns="http://www.w3.org/2000/svg" viewBox="0 0 22 20">
  <defs>
    <style>
      .cls-1 {
        fill: #999;
      }
    </style>
  </defs>
  <path id="table-22X20-常态-开奖" fill="#999" class="cls-1" d="M8,6.866l.6-.6A8.672,8.672,0,0,0,6.9,4.677l-.5.6C6.9,5.672,7.4,6.269,8,6.866Zm4.6-1h3.5A5.463,5.463,0,0,1,14.3,8.06a11.5,11.5,0,0,0-1.7-1.393l-.6.6a17.358,17.358,0,0,1,1.5,1.294,8.306,8.306,0,0,1-2.9,1,4.027,4.027,0,0,1,.5.9q4.5-.9,6-4.478v-.8H13a11.645,11.645,0,0,0,.5-1.095l-.9-.2a7.255,7.255,0,0,1-2.3,3.284,4.343,4.343,0,0,1,.7.6A7.628,7.628,0,0,0,12.6,5.871Zm4.9,5.373H12.3c.1-.3.1-.5.2-.8h-1c-.1.3-.1.5-.2.8h-5v.8H11c-.7,1.294-2.3,2.189-4.9,2.587l.6.9c2.7-.5,4.4-1.592,5.2-3.284a6.985,6.985,0,0,0,5.2,3.085,6.04,6.04,0,0,1,.7-1,5.942,5.942,0,0,1-5-2.388h4.8v-.7ZM9.1,8.358v2.189H10V3.98H9.1V7.463c-.9.4-2,.8-3.1,1.294l.3.9C7.5,9.055,8.5,8.657,9.1,8.358ZM22,2.985V0H3.9A4.577,4.577,0,0,1,0,3.483V16.517A4.455,4.455,0,0,1,3.9,20H22V17.015a1.534,1.534,0,0,1-1.5-1.493A1.625,1.625,0,0,1,22,13.93V11.443a1.493,1.493,0,1,1,0-2.985V5.97a1.534,1.534,0,0,1-1.5-1.493A1.534,1.534,0,0,1,22,2.985ZM20.5,1.891a2.981,2.981,0,0,0,0,5.174v.3a2.981,2.981,0,0,0,0,5.174v.3a2.981,2.981,0,0,0,0,5.174v.4H5a6.44,6.44,0,0,0-3.5-3.184V4.677A6.44,6.44,0,0,0,5,1.493H20.5Z"/>
</svg>
