<svg xmlns="http://www.w3.org/2000/svg" viewBox="0 0 24 24">
  <defs>
    <style>
      .cls-1 {
        fill: #ff4d4d;
      }
    </style>
  </defs>
  <path id="icon-24X24-奖金详情" fill="#ff4d4d" class="cls-1" d="M2,17.5V15.8a9.959,9.959,0,0,0,4.5,1.4V15.7C3.9,15.4,2,14.4,2,13.2v-.1H2V11.4a9.959,9.959,0,0,0,4.5,1.4V11.3C3.9,11.1,2,10.1,2,8.9V8.8H2V7A10.17,10.17,0,0,0,7.1,8.4,7.887,7.887,0,0,1,8.3,6.9.367.367,0,0,1,8,7C4.7,7,2,5.9,2,4.5a.908.908,0,0,1,.3-.7,1,1,0,0,1,.5-.4c0-.2.1-.2.2-.3a5.938,5.938,0,0,1,.8-.4,8.709,8.709,0,0,1,1.9-.5,3.75,3.75,0,0,1,1.1-.1A4.869,4.869,0,0,1,8,2a4.869,4.869,0,0,1,1.2.1c.4,0,.8.1,1.1.1a8.709,8.709,0,0,1,1.9.5,5.938,5.938,0,0,1,.8.4c.1.1.2.1.3.2.2.1.3.3.5.4a2.354,2.354,0,0,1,.2.8.367.367,0,0,1-.1.3A14.083,14.083,0,0,1,16,4.7V4.5C16,1.9,12.7,0,8,0S0,1.9,0,4.5v13C0,20,2.9,21.8,7.2,22a4.756,4.756,0,0,1-.7-2.1C3.9,19.6,2,18.7,2,17.5ZM16,6.2c-4.7,0-8,1.9-8,4.5v8.8c0,2.6,3.3,4.5,8,4.5s8-1.9,8-4.5V10.7C24,8,20.7,6.2,16,6.2Zm6,13.3c0,1.4-2.7,2.5-6,2.5s-6-1.1-6-2.5V17.6a11.369,11.369,0,0,0,6,1.5,11.369,11.369,0,0,0,6-1.5ZM22,15h0c0,1.5-2.7,2.6-6,2.6s-6-1.1-6-2.5V15h0V13.2a11.369,11.369,0,0,0,6,1.5,11.369,11.369,0,0,0,6-1.5Zm-6-1.8c-3.3,0-6-1.1-6-2.5a.908.908,0,0,1,.3-.7,1,1,0,0,1,.5-.4c.1-.1.2-.1.3-.2.2-.1.5-.3.7-.4a8.709,8.709,0,0,1,1.9-.5,4.1,4.1,0,0,1,1.1-.1c.4,0,.8-.1,1.2-.1a4.869,4.869,0,0,1,1.2.1c.4,0,.8.1,1.1.1a8.709,8.709,0,0,1,1.9.5,1.909,1.909,0,0,1,.8.3c.1.1.2.1.3.2.2.1.3.3.5.4a1.08,1.08,0,0,1,.3.7C22,12.1,19.3,13.2,16,13.2Z"/>
</svg>
