<svg xmlns="http://www.w3.org/2000/svg" viewBox="0 0 24 24">
  <defs>
    <style>
      .cls-1 {
        fill: #ff4d4d;
      }
    </style>
  </defs>
  <path id="icon-24X24-转账" fill="#ff4d4d" class="cls-1" d="M12,21.5A9.56,9.56,0,0,1,2.5,12a9.98,9.98,0,0,1,1-4.2H6.4L2.8,4.3A11.89,11.89,0,0,0,0,12,12.035,12.035,0,0,0,12,24a11.89,11.89,0,0,0,7.7-2.8L18,19.4A9.716,9.716,0,0,1,12,21.5ZM12,0A11.89,11.89,0,0,0,4.3,2.8L6,4.6A9.532,9.532,0,0,1,21.5,12a9.98,9.98,0,0,1-1,4.2H17.6l3.6,3.6A12.373,12.373,0,0,0,24,12,12.035,12.035,0,0,0,12,0ZM8.6,13.5a.789.789,0,0,0-.8.8c0,.5.3.7.8.7h2.7v1.9a.789.789,0,0,0,.8.8.736.736,0,0,0,.8-.8V15h2.7a.789.789,0,0,0,.8-.8.736.736,0,0,0-.8-.8H12.9V11.7h2.7a.789.789,0,0,0,.8-.8.736.736,0,0,0-.8-.8H13l2.6-2.6a.778.778,0,0,0-1.1-1.1L12,9,9.6,6.6A.778.778,0,0,0,8.5,7.7l2.6,2.6H8.6a.789.789,0,0,0-.8.8.736.736,0,0,0,.8.8h2.7v1.7H8.6Z"/>
</svg>
