<svg xmlns="http://www.w3.org/2000/svg" viewBox="0 0 22 24">
  <defs>
    <style>
      .cls-1 {
        fill: #ff4d4d;
      }
    </style>
  </defs>
  <path id="icon-22X24-彩票账变" fill="#ff4d4d" class="cls-1" d="M16.4,11.9a.789.789,0,0,0,.8-.8.736.736,0,0,0-.8-.8H14.3L16.6,8a.778.778,0,0,0-1.1-1.1L13.4,9,11.3,6.9A.778.778,0,0,0,10.2,8l2.3,2.3H10.4a.789.789,0,0,0-.8.8.736.736,0,0,0,.8.8h2.3v1.4H10.4a.789.789,0,0,0-.8.8.736.736,0,0,0,.8.8h2.3v1.6a.789.789,0,0,0,.8.8.736.736,0,0,0,.8-.8V14.9h2.3a.789.789,0,0,0,.8-.8.736.736,0,0,0-.8-.8H14V11.9ZM18,0H4A4.012,4.012,0,0,0,0,4V20a4.012,4.012,0,0,0,4,4H18a4.012,4.012,0,0,0,4-4V4A4.012,4.012,0,0,0,18,0ZM5.3,21.5H4A1.538,1.538,0,0,1,2.5,20V4A1.538,1.538,0,0,1,4,2.5H5.3ZM19.5,20A1.538,1.538,0,0,1,18,21.5H6.8V2.5H18A1.538,1.538,0,0,1,19.5,4Z"/>
</svg>
