<svg xmlns="http://www.w3.org/2000/svg" viewBox="0 0 24 24">
  <defs>
    <style>
      .cls-1 {
        fill: #ff4d4d;
      }
    </style>
  </defs>
  <path id="icon-24X24-密码管理" class="cls-1" d="M20,9H6.5V8A5.549,5.549,0,0,1,12,2.5a5.476,5.476,0,0,1,5.5,5.1H20A8.005,8.005,0,0,0,4,8V9a4.012,4.012,0,0,0-4,4v7a4.012,4.012,0,0,0,4,4H20a4.012,4.012,0,0,0,4-4V13A4.012,4.012,0,0,0,20,9Zm1.5,11A1.538,1.538,0,0,1,20,21.5H4A1.538,1.538,0,0,1,2.5,20V13A1.538,1.538,0,0,1,4,11.5H20A1.538,1.538,0,0,1,21.5,13Zm-9.3-6.7a1.792,1.792,0,0,0-.8,3.4v2.7h1.5V16.7a1.781,1.781,0,0,0,1-1.6A1.71,1.71,0,0,0,12.2,13.3Z"/>
</svg>
