<svg xmlns="http://www.w3.org/2000/svg" viewBox="0 0 24 20">
  <defs>
    <style>
      .cls-1 {
        fill: #ff4d4d;
      }
    </style>
  </defs>
  <path id="icon-24X20-银行卡" class="cls-1" d="M18.3,15.263V13.158h-3v2.105Zm5.6-6.316H24V3.158A3.027,3.027,0,0,0,21,0H3A3.027,3.027,0,0,0,0,3.158V16.842A3.027,3.027,0,0,0,3,20H21a3.027,3.027,0,0,0,3-3.158V10.526H21.5v6.316a.485.485,0,0,1-.5.526H3a.485.485,0,0,1-.5-.526V3.158A.485.485,0,0,1,3,2.632H21a.485.485,0,0,1,.5.526V7.368H5.1V8.947H23.9Z"/>
</svg>
