<svg xmlns="http://www.w3.org/2000/svg" viewBox="0 0 22.001 24">
  <defs>
    <style>
      .cls-1 {
        fill: #ff4d4d;
      }
    </style>
  </defs>
  <path id="icon-24X24-资料修改" class="cls-1" d="M5.3,18.1h5.1V16.3H5.3Zm0-11V8.9h4V7.1Zm0,6.4h5V11.7h-5ZM21.6,7.6l-2.1,5.2V20A1.538,1.538,0,0,1,18,21.5H4A1.538,1.538,0,0,1,2.5,20V4A1.538,1.538,0,0,1,4,2.5h9l1.3,1.3,1-2.5L14,0H4A4.012,4.012,0,0,0,0,4V20a4.012,4.012,0,0,0,4,4H18a4.012,4.012,0,0,0,4-4V8Zm-9.1,9.1a.893.893,0,0,0,.9.9,1.08,1.08,0,0,0,.7-.3l3.3-3.4L21.9,2.8A1.478,1.478,0,0,0,21.1.9L19,0h-.6A1.508,1.508,0,0,0,17,.9L12.6,12ZM18.4,1.5l2.1.8-.7,1.8-2.1-.8ZM17.1,4.7l2.1.8-2.7,6.7-2.1-.8ZM14,12.9l1.7.7L14,15.3Z"/>
</svg>
