<svg id="icon-22X24-用户列表" xmlns="http://www.w3.org/2000/svg" viewBox="0 0 22 24">
  <defs>
    <style>
      .cls-1 {
        fill: #ff4d4d;
      }
    </style>
  </defs>
  <path id="路径_51" data-name="路径 51" class="cls-1" d="M11.1,14.4A2.934,2.934,0,0,1,9.5,14a4.889,4.889,0,0,0-2.9,2.9h9A4.889,4.889,0,0,0,12.7,14,4.707,4.707,0,0,1,11.1,14.4Zm0-6.1a2.369,2.369,0,0,0-2.4,2.4,2.433,2.433,0,0,0,2.4,2.4,2.369,2.369,0,0,0,2.4-2.4A2.433,2.433,0,0,0,11.1,8.3ZM4,0A4.012,4.012,0,0,0,0,4V20a4.012,4.012,0,0,0,4,4H18a4.012,4.012,0,0,0,4-4V8L14,0ZM19.5,9V20A1.538,1.538,0,0,1,18,21.5H4A1.538,1.538,0,0,1,2.5,20V4A1.538,1.538,0,0,1,4,2.5h9l3.3,3.3Zm-2-9H15.9L22,6.1V4.5Z"/>
</svg>
