<svg xmlns="http://www.w3.org/2000/svg" width="16" height="16" viewBox="0 0 16 16">
  <metadata><?xpacket begin="﻿" id="W5M0MpCehiHzreSzNTczkc9d"?>
<x:xmpmeta xmlns:x="adobe:ns:meta/" x:xmptk="Adobe XMP Core 5.6-c142 79.160924, 2017/07/13-01:06:39        ">
   <rdf:RDF xmlns:rdf="http://www.w3.org/1999/02/22-rdf-syntax-ns#">
      <rdf:Description rdf:about=""/>
   </rdf:RDF>
</x:xmpmeta>
                                                                                                    
                                                                                                    
                                                                                                    
                                                                                                    
                                                                                                    
                                                                                                    
                                                                                                    
                                                                                                    
                                                                                                    
                                                                                                    
                                                                                                    
                                                                                                    
                                                                                                    
                                                                                                    
                                                                                                    
                                                                                                    
                                                                                                    
                                                                                                    
                                                                                                    
                                                                                                    
                           
<?xpacket end="w"?></metadata>
<defs>
    <style>
      .cls-1 {
        fill: #ff4d4d;
        fill-rule: evenodd;
      }
    </style>
  </defs>
  <path id="icon-16X16-彩票账变" class="cls-1" d="M256,244h-0.458v1H256v12H246v-0.417h-1V257a1,1,0,0,0,1,1h10a1,1,0,0,0,1-1V245A1,1,0,0,0,256,244Zm-1,11V243a1,1,0,0,0-1-1H244a1,1,0,0,0-1,1v12a1,1,0,0,0,1,1h10A1,1,0,0,0,255,255Zm-11-12h10v12H244V243Zm6.625,2.354-1.113,2.052a10.977,10.977,0,0,0-.545,1.108h-0.019q-0.294-.668-1.658-3.16h-1.047l1.947,3.345h-1.6v0.739h1.871v1.018h-1.871v0.749h1.871v1.482h0.928v-1.482H251.2v-0.749h-1.805v-1.018H251.2V248.7h-1.549l1.966-3.345h-0.99Z" transform="translate(-242 -242)"/>
</svg>
