<svg xmlns="http://www.w3.org/2000/svg" viewBox="0 0 15 15">
  <defs>
    <style>
      .cls-1 {
        fill: #ff4d4d;
      }
    </style>
  </defs>
  <path id="路径_90" data-name="路径 90" class="cls-1" d="M7.5,0A7.555,7.555,0,0,0,0,7.5,7.555,7.555,0,0,0,7.5,15,7.555,7.555,0,0,0,15,7.5,7.555,7.555,0,0,0,7.5,0Zm0,14A6.5,6.5,0,1,1,14,7.5,6.487,6.487,0,0,1,7.5,14ZM10,5.3l.7-.6A18.479,18.479,0,0,0,9.3,3.3l-.6.5A8.7,8.7,0,0,1,10,5.3ZM5.2,3.2A10.459,10.459,0,0,1,3.1,6.9l.3,1c.3-.3.5-.6.8-.9v4.8h1V5.6a8.178,8.178,0,0,0,.9-1.9Zm5.2,7.6c-.3,0-.6-.3-.9-.7a7.68,7.68,0,0,1-.9-2.2c0-.4-.1-.8-.1-1.3l2.9-.4-.2-.9-2.8.4a18.521,18.521,0,0,1-.1-2.5h-1c0,1,.1,1.9.1,2.6l-2,.3.2.9,1.9-.3c.1.6.2,1.2.3,1.6A7.851,7.851,0,0,0,9,10.9a2.07,2.07,0,0,0,1.4.9.752.752,0,0,0,.7-.5,4.94,4.94,0,0,0,.5-1.7l-.8-.5C10.8,10.2,10.6,10.8,10.4,10.8Z"/>
</svg>
