<?xml version="1.0" standalone="no"?><!DOCTYPE svg PUBLIC "-//W3C//DTD SVG 1.1//EN" "http://www.w3.org/Graphics/SVG/1.1/DTD/svg11.dtd"><svg t="1534918608821" class="icon" style="" viewBox="0 0 1024 1024" version="1.1" xmlns="http://www.w3.org/2000/svg" p-id="2241" xmlns:xlink="http://www.w3.org/1999/xlink" width="200" height="200"><defs><style type="text/css"></style></defs><path d="M512 1023.65184C229.41696 1023.65184 0.34816 794.58304 0.34816 512S229.41696 0.34816 512 0.34816 1023.65184 229.41696 1023.65184 512 794.58304 1023.65184 512 1023.65184L512 1023.65184zM512 17.39776C238.848 17.39776 17.39776 238.848 17.39776 512c0 273.152 221.44 494.60224 494.60224 494.60224S1006.60224 785.152 1006.60224 512 785.152 17.39776 512 17.39776L512 17.39776zM512 682.5472c-14.1312 0-25.57952-11.44832-25.57952-25.57952 0-14.1312 11.44832-25.57952 25.57952-25.57952 14.1312 0 25.57952 11.44832 25.57952 25.57952S526.1312 682.5472 512 682.5472L512 682.5472zM512 588.73856c-9.41056 0-17.05984-7.63904-17.05984-17.05984l-8.52992-213.18656c0-9.43104 11.44832-17.05984 25.57952-17.05984 14.1312 0 25.57952 7.6288 25.57952 17.05984l-8.52992 213.18656C529.0496 581.09952 521.41056 588.73856 512 588.73856L512 588.73856z" p-id="2242"></path></svg>